<svg width="100" height="100" viewBox="0 0 100 100" fill="none" xmlns="http://www.w3.org/2000/svg">
<path d="M50.0056 4.29725e-06C22.3774 -0.0114715 0 22.9631 0 51.3197C0 73.7434 13.9984 92.8047 33.4935 99.8049C36.1189 100.482 35.7167 98.5655 35.7167 97.2573V88.3636C20.5564 90.1882 19.9419 79.8829 18.9253 78.1616C16.8696 74.5582 12.0098 73.6401 13.4622 71.9188C16.9143 70.0941 20.4335 72.3778 24.5112 78.5632C27.4606 83.0503 33.2142 82.2929 36.13 81.5469C36.7668 78.8501 38.1298 76.4402 40.0067 74.5697C24.299 71.6778 17.7522 61.8315 17.7522 50.1262C17.7522 44.4457 19.5732 39.2242 23.1483 35.0126C20.8692 28.0698 23.3605 22.1253 23.6957 21.2417C30.1866 20.6449 36.9344 26.0156 37.4595 26.4402C41.1462 25.4189 45.3581 24.8795 50.0726 24.8795C54.8095 24.8795 59.0325 25.4418 62.7528 26.4746C64.0152 25.4877 70.2715 20.8745 76.3043 21.4368C76.6283 22.3204 79.0638 28.1272 76.9188 34.9782C80.5385 39.2013 82.3819 44.4687 82.3819 50.1607C82.3819 61.8889 75.7904 71.7466 60.038 74.5926C61.3872 75.9556 62.4585 77.581 63.1894 79.3741C63.9202 81.1671 64.2959 83.0917 64.2945 85.0356V97.9458C64.3839 98.9787 64.2945 100 65.9703 100C85.7558 93.149 100 73.95 100 51.3312C100 22.963 77.6114 4.29725e-06 50.0056 4.29725e-06V4.29725e-06Z" fill="#919191"/>
</svg>
